<?xml version="1.0" encoding="utf-8"?>
<!-- Generator: Adobe Illustrator 22.1.0, SVG Export Plug-In . SVG Version: 6.00 Build 0)  -->
<svg version="1.1" id="Layer_1" xmlns="http://www.w3.org/2000/svg" xmlns:xlink="http://www.w3.org/1999/xlink" x="0px" y="0px"
	 viewBox="0 0 106 106" style="enable-background:new 0 0 106 106;" xml:space="preserve">
<style type="text/css">
	.st0{fill:#FFFFFF;}
</style>
<g>
	<path class="st0" d="M53,1C24.3,1,1,24.3,1,53s23.3,52,52,52s52-23.3,52-52S81.7,1,53,1z M35,74c-5,0-9-4-9-9V30c5,0,9,4,9,9V74z
		 M71,74h-6H47c-5,0-9-4-9-9h18h24C80,70,76,74,71,74z M54,61.5c-5,0-9-4-9-9h26c5,0,9,4,9,9H54z M72,49H46c0-5,4-9,9-9h26
		C81,45,77,49,72,49z"/>
</g>
</svg>
