<?xml version="1.0" encoding="utf-8"?>
<!-- Generator: Adobe Illustrator 22.0.1, SVG Export Plug-In . SVG Version: 6.00 Build 0)  -->
<svg version="1.1" id="S" xmlns="http://www.w3.org/2000/svg" xmlns:xlink="http://www.w3.org/1999/xlink" x="0px" y="0px"
	 viewBox="0 0 52 55" style="enable-background:new 0 0 52 55;" xml:space="preserve">
<style type="text/css">
	.st0{fill:#45B1E8;}
	.st1{fill:#0E005C;}
</style>
<path id="push" class="st0" d="M24,44.2c-2.4,0-10,0.3-17,0.2L0.7,54.7H20c3.1,0,6.9-0.6,10.5-1.9c4.7-6.6,3.2-13.2,1.6-16.2
	C32.1,40.4,28.6,44.2,24,44.2z"/>
<path id="forward" class="st0" d="M30.2,9.7C33.7,9.7,46,10,46,10l5.7-9.8H32.5H32c-1.9,0-3.7,0.2-5.4,0.5c-0.6,0.4-9.7,6-3.2,14.7
	c0-0.2-0.1-0.4-0.1-0.7c0-2.2,1.3-3.6,3.1-4.3C27.6,9.9,28.9,9.7,30.2,9.7z"/>
<path id="Fire" class="st1" d="M11.6,18.7c0,4.6,2.3,7.4,5.3,9.5c4.7,3.1,11.1,4.2,13.8,6.8c0.6,0.6,1.3,1.2,1.5,2
	c1.3,3.2,3,8.9-1.5,15.6c7.1-2.7,13.7-8.3,13.7-17.7c0-13.7-13.7-13.1-20.4-18.8C17.3,6.9,26.6,1,27.3,0.5
	C18.2,2.2,11.6,8.3,11.6,18.7z"/>
</svg>
